<mxfile host="app.diagrams.net" modified="2023-01-17T11:01:22.959Z" agent="5.0 (Macintosh; Intel Mac OS X 10_15_7) AppleWebKit/605.1.15 (KHTML, like Gecko) Version/16.1 Safari/605.1.15" version="20.7.4" etag="7Qvy9zB2R_sRkF9zjoVI" type="github">
  <diagram id="WKxOcebgFJSKpils4bpc" name="第 1 页">
    <mxGraphModel dx="1194" dy="735" grid="1" gridSize="10" guides="1" tooltips="1" connect="1" arrows="1" fold="1" page="1" pageScale="1" pageWidth="827" pageHeight="1169" math="0" shadow="0">
      <root>
        <mxCell id="0" />
        <mxCell id="1" parent="0" />
        <mxCell id="LuNWCb3UOcyUyxR_V7F5-8" value="MySQL" style="shape=cylinder3;whiteSpace=wrap;html=1;boundedLbl=1;backgroundOutline=1;size=15;fontSize=13;fillColor=#f8cecc;strokeColor=#b85450;" vertex="1" parent="1">
          <mxGeometry x="89" y="660" width="280" height="80" as="geometry" />
        </mxCell>
        <mxCell id="LuNWCb3UOcyUyxR_V7F5-9" value="Vault&lt;br&gt;密钥管理框架" style="rounded=0;whiteSpace=wrap;html=1;fontSize=13;fillColor=#fff2cc;strokeColor=#d6b656;" vertex="1" parent="1">
          <mxGeometry x="169" y="580" width="289" height="60" as="geometry" />
        </mxCell>
        <mxCell id="LuNWCb3UOcyUyxR_V7F5-10" value="API 接口服务" style="rounded=0;whiteSpace=wrap;html=1;fontSize=13;fontColor=#333333;fillColor=#f5f5f5;strokeColor=#666666;" vertex="1" parent="1">
          <mxGeometry x="89" y="260" width="505" height="60" as="geometry" />
        </mxCell>
        <mxCell id="LuNWCb3UOcyUyxR_V7F5-11" value="Spring Boot Framework" style="rounded=0;whiteSpace=wrap;html=1;fontSize=13;fillColor=#dae8fc;strokeColor=#6c8ebf;" vertex="1" parent="1">
          <mxGeometry x="169" y="420" width="425" height="60" as="geometry" />
        </mxCell>
        <mxCell id="LuNWCb3UOcyUyxR_V7F5-12" value="Spring Framework" style="rounded=0;whiteSpace=wrap;html=1;fontSize=13;fillColor=#dae8fc;strokeColor=#6c8ebf;" vertex="1" parent="1">
          <mxGeometry x="169" y="500" width="130" height="60" as="geometry" />
        </mxCell>
        <mxCell id="LuNWCb3UOcyUyxR_V7F5-13" value="Tomcat" style="rounded=0;whiteSpace=wrap;html=1;fontSize=13;fillColor=#dae8fc;strokeColor=#6c8ebf;" vertex="1" parent="1">
          <mxGeometry x="319" y="500" width="75" height="60" as="geometry" />
        </mxCell>
        <mxCell id="LuNWCb3UOcyUyxR_V7F5-14" value="Open Feign" style="rounded=0;whiteSpace=wrap;html=1;fontSize=13;fillColor=#dae8fc;strokeColor=#6c8ebf;" vertex="1" parent="1">
          <mxGeometry x="414" y="500" width="85" height="60" as="geometry" />
        </mxCell>
        <mxCell id="LuNWCb3UOcyUyxR_V7F5-16" value="接口身份鉴权（JWT）" style="rounded=0;whiteSpace=wrap;html=1;fontSize=13;fillColor=#e1d5e7;strokeColor=#9673a6;" vertex="1" parent="1">
          <mxGeometry x="89" y="340" width="245" height="60" as="geometry" />
        </mxCell>
        <mxCell id="LuNWCb3UOcyUyxR_V7F5-17" value="日&lt;br&gt;志&lt;br&gt;框&lt;br&gt;架" style="rounded=0;whiteSpace=wrap;html=1;fontSize=13;fillColor=#dae8fc;strokeColor=#6c8ebf;" vertex="1" parent="1">
          <mxGeometry x="619" y="260" width="50" height="290" as="geometry" />
        </mxCell>
        <mxCell id="LuNWCb3UOcyUyxR_V7F5-18" value="Signature 签名访问鉴权" style="rounded=0;whiteSpace=wrap;html=1;fontSize=13;fillColor=#e1d5e7;strokeColor=#9673a6;" vertex="1" parent="1">
          <mxGeometry x="359" y="340" width="235" height="60" as="geometry" />
        </mxCell>
        <mxCell id="LuNWCb3UOcyUyxR_V7F5-19" value="版&lt;br&gt;本&lt;br&gt;控&lt;br&gt;制" style="rounded=0;whiteSpace=wrap;html=1;fontSize=13;fillColor=#d5e8d4;strokeColor=#82b366;" vertex="1" parent="1">
          <mxGeometry x="689" y="260" width="50" height="470" as="geometry" />
        </mxCell>
        <mxCell id="LuNWCb3UOcyUyxR_V7F5-23" value="MyBatis&lt;br&gt;数据库 ORM 框架" style="rounded=0;whiteSpace=wrap;html=1;fontSize=13;fillColor=#fff2cc;strokeColor=#d6b656;" vertex="1" parent="1">
          <mxGeometry x="474" y="580" width="195" height="60" as="geometry" />
        </mxCell>
        <mxCell id="LuNWCb3UOcyUyxR_V7F5-24" value="JSON" style="rounded=0;whiteSpace=wrap;html=1;fontSize=13;fillColor=#dae8fc;strokeColor=#6c8ebf;" vertex="1" parent="1">
          <mxGeometry x="519" y="500" width="75" height="60" as="geometry" />
        </mxCell>
        <mxCell id="LuNWCb3UOcyUyxR_V7F5-27" value="本地缓存" style="shape=cylinder3;whiteSpace=wrap;html=1;boundedLbl=1;backgroundOutline=1;size=15;fontSize=13;fillColor=#f8cecc;strokeColor=#b85450;" vertex="1" parent="1">
          <mxGeometry x="389" y="660" width="280" height="80" as="geometry" />
        </mxCell>
        <mxCell id="LuNWCb3UOcyUyxR_V7F5-28" value="配&lt;br&gt;置&lt;br&gt;中&lt;br&gt;心" style="rounded=0;whiteSpace=wrap;html=1;fontSize=13;fillColor=#dae8fc;strokeColor=#6c8ebf;" vertex="1" parent="1">
          <mxGeometry x="89" y="420" width="50" height="220" as="geometry" />
        </mxCell>
      </root>
    </mxGraphModel>
  </diagram>
</mxfile>
